<?xml version="1.0" encoding="UTF-8"?>
<svg width="40px" height="40px" viewBox="0 0 40 40" version="1.1" xmlns="http://www.w3.org/2000/svg" xmlns:xlink="http://www.w3.org/1999/xlink">
    <!-- Generator: Sketch 49.3 (51167) - http://www.bohemiancoding.com/sketch -->
    <title>Group 5@1x</title>
    <desc>Created with Sketch.</desc>
    <defs>
        <circle id="path-1" cx="20" cy="20" r="20"></circle>
        <linearGradient x1="8.02371592%" y1="50%" x2="100%" y2="50%" id="linearGradient-3">
            <stop stop-color="#19A5FF" offset="0%"></stop>
            <stop stop-color="#117BFD" offset="100%"></stop>
        </linearGradient>
    </defs>
    <g id="通知" stroke="none" stroke-width="1" fill="none" fill-rule="evenodd">
        <g id="Artboard" transform="translate(-43.000000, -383.000000)">
            <g id="Group-5" transform="translate(43.000000, 383.000000)">
                <g id="Group-6">
                    <g id="Group">
                        <mask id="mask-2" fill="white">
                            <use xlink:href="#path-1"></use>
                        </mask>
                        <use id="Mask" fill="#D8D8D8" xlink:href="#path-1"></use>
                        <g mask="url(#mask-2)" fill="url(#linearGradient-3)" id="Rectangle-9">
                            <rect x="0" y="0" width="40" height="40" rx="10"></rect>
                        </g>
                    </g>
                </g>
                <g id="Group-5-Copy-18" transform="translate(10.500000, 10.000000)" fill="#FFFFFF">
                    <path d="M9.76459227,20.3038124 C8.05190507,20.3038124 6.21673642,20.3038124 4.23068973,20.3038124 C2.77519754,20.3038124 1.84942955,20.2764984 0.934928294,19.2384419 C0.0204270398,18.2003853 -0.003536775,17.1662348 0.00026863441,15.1285052 C0.00326081054,13.5262476 0.00026863441,11.7652591 0.00026863441,10.1519062 C0.00026863441,4.54516323 4.37190523,0 9.76459227,0 C13.6992154,0 17.090284,2.41960974 18.636387,5.90576009 C19.0845143,5.71666254 20.3603972,5.29939876 21.1236751,6.37167097 C21.8869529,7.44394319 21.1909368,8.72856503 20.8797137,9.36344048 C20.691176,9.74804536 19.9368022,10.8338349 19.4553915,11.4039413 C18.8620161,16.4199692 14.7495481,20.3038124 9.76459227,20.3038124 Z M8.50195738,9.98806977 C7.83487752,10.7558922 7.38110645,10.9854468 7.67126515,11.5714761 C8.18434607,12.0173689 9.19152807,10.8300155 9.2533085,10.747999 C10.1672469,9.53470085 10.6045912,8.61901755 10.6045912,7.89905302 C10.6045912,7.0028678 10.1397168,6.23945216 9.2533085,6.04819119 C8.49978301,5.88560243 7.53349871,6.22869729 7.20117451,6.45376443 C6.62132327,6.84646967 5.14955909,7.96390477 5.71473503,8.45314194 C6.00288286,8.92215197 6.65158904,8.1388777 7.04665246,7.79355681 C8.16322187,6.81757491 9.1115441,6.91883039 9.41095587,7.26695495 C9.64245127,7.53611348 9.89207207,8.38801955 8.50195738,9.98806977 Z" id="Combined-Shape"></path>
                </g>
            </g>
        </g>
    </g>
</svg>