<?xml version="1.0" encoding="UTF-8"?>
<svg width="50px" height="50px" viewBox="0 0 50 50" version="1.1" xmlns="http://www.w3.org/2000/svg" xmlns:xlink="http://www.w3.org/1999/xlink">
    <!-- Generator: Sketch 49.3 (51167) - http://www.bohemiancoding.com/sketch -->
    <title>Group 4@1x</title>
    <desc>Created with Sketch.</desc>
    <defs></defs>
    <g id="通知" stroke="none" stroke-width="1" fill="none" fill-rule="evenodd">
        <g id="Artboard" transform="translate(-283.000000, -121.000000)">
            <g id="Group-4" transform="translate(283.000000, 121.000000)">
                <circle id="Oval-Copy-2" fill="#55BC8A" cx="25" cy="25" r="25"></circle>
                <g id="帖子转发（灰）" transform="translate(15.000000, 17.000000)">
                    <path d="M7.94117647,14 L10.8823529,14 C11.369663,14 11.7647059,14.3837559 11.7647059,14.8571429 C11.7647059,15.3305298 11.369663,15.7142857 10.8823529,15.7142857 L7.94117647,15.7142857 C7.4538664,15.7142857 7.05882353,15.3305298 7.05882353,14.8571429 C7.05882353,14.3837559 7.4538664,14 7.94117647,14 Z" id="Rectangle-2" fill="#FFFFFF"></path>
                    <path d="M3.73688812,0.103042029 L6.72037735,4.19912339 C6.7991597,4.30728497 6.77012983,4.45524884 6.65553732,4.52960993 C6.61356381,4.55684728 6.56382538,4.57142857 6.51288925,4.57142857 L0.545910786,4.57142857 C0.406849275,4.57142857 0.294117647,4.46502344 0.294117647,4.33376605 C0.294117647,4.28568846 0.309565898,4.23874134 0.338422683,4.19912339 L3.32191191,0.103042029 C3.40069427,-0.00511955896 3.55745557,-0.032520275 3.67204809,0.0418408166 C3.69744798,0.0583232489 3.7194257,0.0790675817 3.73688812,0.103042029 Z" id="Triangle-3" fill="#FFFFFF"></path>
                    <path d="M10.5882353,14.8571429 L5.88235294,14.8571429 C4.58285941,14.8571429 3.52941176,13.8337937 3.52941176,12.5714286 L3.52941176,2.28571429" id="Rectangle-11" stroke="#FFFFFF" stroke-width="2" stroke-linecap="round"></path>
                    <path d="M16.6780646,11.5316135 L19.6615538,15.6276948 C19.7403362,15.7358564 19.7113063,15.8838203 19.5967138,15.9581814 C19.5547403,15.9854187 19.5050018,16 19.4540657,16 L13.4870873,16 C13.3480257,16 13.2352941,15.8935949 13.2352941,15.7623375 C13.2352941,15.7142599 13.2507424,15.6673128 13.2795992,15.6276948 L16.2630884,11.5316135 C16.3418707,11.4234519 16.498632,11.3960512 16.6132246,11.4704122 C16.6386244,11.4868947 16.6606022,11.507639 16.6780646,11.5316135 Z" id="Triangle-3" fill="#FFFFFF" transform="translate(16.470588, 13.714286) scale(-1, -1) translate(-16.470588, -13.714286) "></path>
                    <path d="M16.4705882,13.7142857 L11.7647059,13.7142857 C10.4652124,13.7142857 9.41176471,12.6909366 9.41176471,11.4285714 L9.41176471,1.14285714" id="Rectangle-11" stroke="#FFFFFF" stroke-width="2" stroke-linecap="round" transform="translate(12.941176, 7.428571) scale(-1, -1) translate(-12.941176, -7.428571) "></path>
                    <path d="M9.11764706,0.285714286 L12.0588235,0.285714286 C12.5461336,0.285714286 12.9411765,0.669470214 12.9411765,1.14285714 C12.9411765,1.61624407 12.5461336,2 12.0588235,2 L9.11764706,2 C8.63033699,2 8.23529412,1.61624407 8.23529412,1.14285714 C8.23529412,0.669470214 8.63033699,0.285714286 9.11764706,0.285714286 Z" id="Rectangle-2" fill="#FFFFFF" transform="translate(10.588235, 1.142857) scale(-1, -1) translate(-10.588235, -1.142857) "></path>
                </g>
            </g>
        </g>
    </g>
</svg>