<?xml version="1.0" encoding="UTF-8"?>
<svg width="50px" height="50px" viewBox="0 0 50 50" version="1.1" xmlns="http://www.w3.org/2000/svg" xmlns:xlink="http://www.w3.org/1999/xlink">
    <!-- Generator: Sketch 49.3 (51167) - http://www.bohemiancoding.com/sketch -->
    <title>通知喜欢1@1x</title>
    <desc>Created with Sketch.</desc>
    <defs>
        <linearGradient x1="2.56615788%" y1="52.5661579%" x2="97.4338421%" y2="52.5661579%" id="linearGradient-1">
            <stop stop-color="#E86348" offset="0%"></stop>
            <stop stop-color="#D95E40" offset="100%"></stop>
        </linearGradient>
    </defs>
    <g id="通知" stroke="none" stroke-width="1" fill="none" fill-rule="evenodd">
        <g id="Artboard" transform="translate(-163.000000, -121.000000)">
            <g id="通知喜欢1" transform="translate(163.000000, 121.000000)">
                <g id="Group-5">
                    <circle id="Oval-Copy" fill="url(#linearGradient-1)" cx="25" cy="25" r="25"></circle>
                    <path d="M29.3740806,16 C27.6532242,16 26.0531678,16.8356264 25.0000098,18.2135385 C23.9474586,16.8352854 22.3477154,16 20.6259194,16 C17.5238013,16 15,18.670935 15,21.9542269 C15,23.9129466 15.9039346,25.2870121 16.6305549,26.3910243 C18.7423521,29.5977835 24.0521088,33.5885156 24.2770305,33.7567588 C24.4936913,33.9189007 24.7469778,34 24.9996966,34 C25.2529831,34 25.5059367,33.9189007 25.7223627,33.7567588 C25.9475388,33.5885156 31.2576087,29.5978024 33.3687991,26.3910243 C34.0957718,25.2869932 35,23.9129277 35,21.9542269 C34.9999804,18.670935 32.4761596,16 29.3740806,16 Z" id="帖子喜欢（灰）-copy" fill="#FFFFFF" fill-rule="nonzero"></path>
                </g>
            </g>
            <g id="通知喜欢1" transform="translate(163.000000, 121.000000)">
                <g id="Group-5">
                    <circle id="Oval-Copy" fill="url(#linearGradient-1)" cx="25" cy="25" r="25"></circle>
                    <path d="M29.3740806,16 C27.6532242,16 26.0531678,16.8356264 25.0000098,18.2135385 C23.9474586,16.8352854 22.3477154,16 20.6259194,16 C17.5238013,16 15,18.670935 15,21.9542269 C15,23.9129466 15.9039346,25.2870121 16.6305549,26.3910243 C18.7423521,29.5977835 24.0521088,33.5885156 24.2770305,33.7567588 C24.4936913,33.9189007 24.7469778,34 24.9996966,34 C25.2529831,34 25.5059367,33.9189007 25.7223627,33.7567588 C25.9475388,33.5885156 31.2576087,29.5978024 33.3687991,26.3910243 C34.0957718,25.2869932 35,23.9129277 35,21.9542269 C34.9999804,18.670935 32.4761596,16 29.3740806,16 Z" id="帖子喜欢（灰）-copy" fill="#FFFFFF" fill-rule="nonzero"></path>
                </g>
            </g>
        </g>
    </g>
</svg>