<?xml version="1.0" encoding="UTF-8"?>
<svg width="50px" height="50px" viewBox="0 0 50 50" version="1.1" xmlns="http://www.w3.org/2000/svg" xmlns:xlink="http://www.w3.org/1999/xlink">
    <!-- Generator: Sketch 49.3 (51167) - http://www.bohemiancoding.com/sketch -->
    <title>通知提到@@1x</title>
    <desc>Created with Sketch.</desc>
    <defs>
        <linearGradient x1="100%" y1="50%" x2="3.13177384%" y2="50%" id="linearGradient-1">
            <stop stop-color="#497895" offset="0%"></stop>
            <stop stop-color="#4C81A2" offset="100%"></stop>
        </linearGradient>
    </defs>
    <g id="通知" stroke="none" stroke-width="1" fill="none" fill-rule="evenodd">
        <g id="Artboard" transform="translate(-163.000000, -219.000000)">
            <g id="通知提到@" transform="translate(163.000000, 219.000000)">
                <g id="Group-10">
                    <circle id="Oval-Copy-2" fill="url(#linearGradient-1)" cx="25" cy="25" r="25"></circle>
                    <path d="M25.3289817,16 C27.8668407,16 29.8642298,16.7762803 31.3211488,18.3530997 C32.5665796,19.7115903 33.2010444,21.3854447 33.2010444,23.3746631 C33.2010444,25.0727763 32.6605744,26.6495957 31.6266319,28.1051213 C30.5691906,29.5363881 29.3707572,30.2641509 28.0078329,30.2641509 C27.0208877,30.2641509 26.4569191,29.754717 26.2924282,28.7601078 C25.6109661,29.7789757 24.694517,30.2884097 23.5665796,30.2884097 C22.5091384,30.2884097 21.6631854,29.9245283 21.0052219,29.1967655 C20.3472585,28.4690027 20.0182768,27.5471698 20.0182768,26.4555256 C20.0182768,24.7574124 20.5117493,23.277628 21.5456919,21.967655 C22.5561358,20.6334232 23.7780679,19.9784367 25.1879896,19.9784367 C26.1984334,19.9784367 26.9033943,20.5363881 27.3263708,21.6522911 L27.6553525,20.4393531 L29.7467363,20.4393531 L28.1488251,26.3584906 C27.9138381,27.2318059 27.7963446,27.7654987 27.7963446,27.9838275 C27.7963446,28.2991914 27.9608355,28.4690027 28.3133159,28.4690027 C28.9712794,28.4690027 29.6292428,28.0080863 30.2872063,27.1347709 C31.0391645,26.115903 31.4151436,24.8544474 31.4151436,23.3989218 C31.4151436,21.8948787 30.8981723,20.6091644 29.8642298,19.5660377 C28.7127937,18.4016173 27.1618799,17.8436658 25.1879896,17.8436658 C23.073107,17.8436658 21.4046997,18.5229111 20.1357702,19.9056604 C18.8668407,21.2641509 18.2558747,23.0350404 18.2558747,25.1940701 C18.2558747,27.5714286 18.9138381,29.3908356 20.2532637,30.6037736 C21.4751958,31.7196765 23.2375979,32.277628 25.5169713,32.277628 C27.0443864,32.277628 28.3368146,32.0107817 29.4177546,31.5256065 C30.4046997,31.0404313 31.1801567,30.3854447 31.7911227,29.5121294 L34,29.5121294 C33.1775457,31.0404313 31.9556136,32.2048518 30.3577023,32.9811321 C28.9007833,33.6603774 27.3028721,34 25.5169713,34 C22.5091384,34 20.1592689,33.1994609 18.4908616,31.5983827 C16.8224543,29.9973046 16,27.8140162 16,25.097035 C16,22.574124 16.7989556,20.4636119 18.4203655,18.7654987 C20.1592689,16.9218329 22.462141,16 25.3289817,16 Z M25.6109661,22.0889488 C24.7180157,22.0889488 23.9425587,22.5498652 23.2845953,23.4716981 C22.6266319,24.393531 22.2976501,25.4123989 22.2976501,26.5525606 C22.2976501,27.1347709 22.4151436,27.5714286 22.6501305,27.8625337 C22.8851175,28.1778976 23.2375979,28.3477089 23.7545692,28.3477089 C24.2010444,28.3477089 24.6475196,28.1778976 25.0704961,27.8382749 C25.54047,27.4501348 25.8694517,26.9407008 26.0574413,26.3342318 L26.5274151,24.5876011 C26.7154047,23.884097 26.8093995,23.4474394 26.8093995,23.3018868 C26.8093995,22.9380054 26.6684073,22.6469003 26.4334204,22.4285714 C26.1984334,22.1859838 25.9164491,22.0889488 25.6109661,22.0889488 Z" id="@" fill="#FFFFFF"></path>
                </g>
            </g>
        </g>
    </g>
</svg>