<?xml version="1.0" encoding="UTF-8"?>
<svg width="50px" height="50px" viewBox="0 0 50 50" version="1.1" xmlns="http://www.w3.org/2000/svg" xmlns:xlink="http://www.w3.org/1999/xlink">
    <!-- Generator: Sketch 49.3 (51167) - http://www.bohemiancoding.com/sketch -->
    <title>通知订阅@1x</title>
    <desc>Created with Sketch.</desc>
    <defs>
        <linearGradient x1="-2.22044605e-14%" y1="50%" x2="98.5729769%" y2="50%" id="linearGradient-1">
            <stop stop-color="#E4476A" offset="0%"></stop>
            <stop stop-color="#C8405E" offset="100%"></stop>
        </linearGradient>
    </defs>
    <g id="通知" stroke="none" stroke-width="1" fill="none" fill-rule="evenodd">
        <g id="Artboard" transform="translate(-43.000000, -219.000000)">
            <g id="通知订阅" transform="translate(43.000000, 219.000000)">
                <g id="Group-4">
                    <circle id="Oval-Copy-2" fill="url(#linearGradient-1)" cx="25" cy="25" r="25"></circle>
                    <g id="订阅" transform="translate(16.000000, 16.000000)" fill="#FFFFFF" fill-rule="nonzero">
                        <path d="M2.25387002,17.9852895 C3.49549516,17.9852895 4.50203121,16.9787534 4.50203121,15.7371283 C4.50203121,14.4955032 3.49549516,13.4889671 2.25387002,13.4889671 C1.01224489,13.4889671 0.00570883008,14.4955032 0.00570883008,15.7371283 C0.00570883008,16.9787534 1.01224489,17.9852895 2.25387002,17.9852895 Z M1.50448296,8.99264477 C5.64734821,8.99264477 8.99756506,12.3450777 8.99756506,16.5012254 C8.99756506,17.3289754 9.6685891,17.9999995 10.4963392,17.9999995 C11.3240893,17.9999995 11.9951133,17.3289754 11.9951133,16.5012254 C11.9951133,10.690021 7.30329228,5.99509651 1.50448296,5.99509651 C0.676732869,5.99509651 0.00570883008,6.66612062 0.00570883008,7.49387064 C0.00570883008,8.32162066 0.676732869,8.99264477 1.50448296,8.99264477 Z M1.50448296,2.99754826 C8.95792785,2.99754826 14.9967434,9.03625295 14.9967434,16.4932713 C14.9967434,17.3210215 15.6677675,17.9920454 16.4955175,17.9920454 C17.3232677,17.9920454 17.9942916,17.3210215 17.9942916,16.4932713 C17.9942916,7.38074032 10.6134157,0 1.50448296,0 C0.676732869,0 0.00570883008,0.671024109 0.00570883008,1.49877413 C0.00570883008,2.32652415 0.676732869,2.99754826 1.50448296,2.99754826 Z" id="Shape"></path>
                    </g>
                </g>
            </g>
        </g>
    </g>
</svg>